<svg xmlns="http://www.w3.org/2000/svg" viewBox="0 0 24 24" fill="currentColor" width="24" height="24">
  <path d="M12 12.5a3.5 3.5 0 100-7 3.5 3.5 0 000 7z" />
  <path fill-rule="evenodd" d="M12 2a4 4 0 00-4 4v1.268a.75.75 0 01-.095.355l-1.636 3.273A2.5 2.5 0 008.683 14H15.3a2.5 2.5 0 002.414-3.104l-1.636-3.273A.75.75 0 0116 7.268V6a4 4 0 00-4-4zm-5.25 8.626a.5.5 0 00-.482.621l1.636 3.273a4 4 0 003.863 2.48h6.466a4 4 0 003.863-2.48l1.636-3.273a.5.5 0 00-.482-.621H6.75z" clip-rule="evenodd" />
</svg>
