<svg xmlns="http://www.w3.org/2000/svg" viewBox="0 0 24 24" fill="currentColor" width="24" height="24">
    <path fill-rule="evenodd" d="M3.75 3A1.75 1.75 0 002 4.75v14.5c0 .966.784 1.75 1.75 1.75h16.5A1.75 1.75 0 0022 19.25V4.75A1.75 1.75 0 0020.25 3H3.75zM8 7a1 1 0 011 1v1a1 1 0 11-2 0V8a1 1 0 011-1zm3 1a1 1 0 100-2 1 1 0 000 2zm-3 5a1 1 0 011 1v1a1 1 0 11-2 0v-1a1 1 0 011-1zm3 1a1 1 0 100-2 1 1 0 000 2zm3-5a1 1 0 011 1v1a1 1 0 11-2 0V8a1 1 0 011-1zm3 1a1 1 0 100-2 1 1 0 000 2zm-3 5a1 1 0 011 1v1a1 1 0 11-2 0v-1a1 1 0 011-1zm3 1a1 1 0 100-2 1 1 0 000 2zM8 17a1 1 0 100-2 1 1 0 000 2zm3-1a1 1 0 11-2 0v-1a1 1 0 112 0v1zm3 1a1 1 0 100-2 1 1 0 000 2zm3-1a1 1 0 11-2 0v-1a1 1 0 112 0v1z" clip-rule="evenodd" />
</svg>
